<svg width="89" height="38" viewBox="0 0 89 38" fill="none" xmlns="http://www.w3.org/2000/svg">
<path d="M12.5816 20.285L22.0864 29.5387C24.0368 31.3512 26.6859 28.8873 24.7791 27.1102L16.1696 18.7486L24.8301 10.295C26.6058 8.64536 23.8694 6.22397 22.0864 7.88071L12.5598 17.1556C11.3299 18.2743 11.1261 18.9539 12.5816 20.285Z" fill="#6B6C7E"/>
<path d="M42.184 25.24C40.616 25.24 39.248 24.632 38.08 23.416V24.04C38.08 24.344 37.968 24.6 37.744 24.808C37.536 25.016 37.28 25.12 36.976 25.12C36.672 25.12 36.416 25.016 36.208 24.808C36 24.6 35.896 24.344 35.896 24.04V8.464C35.896 8.16 36 7.904 36.208 7.696C36.416 7.472 36.672 7.36 36.976 7.36C37.296 7.36 37.56 7.464 37.768 7.672C37.976 7.88 38.08 8.144 38.08 8.464V14.344C39.248 13.128 40.616 12.52 42.184 12.52C43.176 12.52 44.112 12.776 44.992 13.288C45.888 13.784 46.608 14.52 47.152 15.496C47.712 16.456 47.992 17.584 47.992 18.88C47.992 20.176 47.712 21.312 47.152 22.288C46.608 23.248 45.888 23.984 44.992 24.496C44.112 24.992 43.176 25.24 42.184 25.24ZM41.872 23.2C43.056 23.2 44.008 22.824 44.728 22.072C45.448 21.32 45.808 20.256 45.808 18.88C45.808 17.504 45.448 16.44 44.728 15.688C44.008 14.936 43.056 14.56 41.872 14.56C41.136 14.56 40.44 14.728 39.784 15.064C39.144 15.384 38.576 15.816 38.08 16.36V21.4C38.576 21.944 39.144 22.384 39.784 22.72C40.44 23.04 41.136 23.2 41.872 23.2ZM54.1566 25.24C53.4526 25.24 52.7966 25.096 52.1886 24.808C51.5966 24.52 51.1246 24.104 50.7726 23.56C50.4206 23 50.2446 22.36 50.2446 21.64C50.2446 20.456 50.7086 19.512 51.6366 18.808C52.5806 18.104 53.9566 17.752 55.7646 17.752H58.6686V17.56C58.6686 16.504 58.4046 15.744 57.8766 15.28C57.3646 14.816 56.5566 14.584 55.4526 14.584C54.8446 14.584 54.3006 14.632 53.8206 14.728C53.3566 14.824 52.8366 14.968 52.2606 15.16C52.1326 15.192 52.0286 15.208 51.9486 15.208C51.7086 15.208 51.5006 15.12 51.3246 14.944C51.1486 14.768 51.0606 14.552 51.0606 14.296C51.0606 13.864 51.2686 13.56 51.6846 13.384C53.0446 12.808 54.4286 12.52 55.8366 12.52C56.9406 12.52 57.8686 12.744 58.6206 13.192C59.3886 13.64 59.9486 14.224 60.3006 14.944C60.6686 15.648 60.8526 16.416 60.8526 17.248V24.04C60.8526 24.344 60.7406 24.6 60.5166 24.808C60.3086 25.016 60.0526 25.12 59.7486 25.12C59.4446 25.12 59.1886 25.016 58.9806 24.808C58.7726 24.6 58.6686 24.344 58.6686 24.04V23.416C57.4846 24.632 55.9806 25.24 54.1566 25.24ZM54.9726 23.32C55.6766 23.32 56.3566 23.152 57.0126 22.816C57.6686 22.464 58.2206 22.032 58.6686 21.52V19.504H56.0526C53.6366 19.504 52.4286 20.136 52.4286 21.4C52.4286 21.976 52.6206 22.44 53.0046 22.792C53.4046 23.144 54.0606 23.32 54.9726 23.32ZM70.1772 25.24C69.0252 25.24 67.9612 24.984 66.9852 24.472C66.0092 23.96 65.2252 23.224 64.6332 22.264C64.0572 21.304 63.7692 20.176 63.7692 18.88C63.7692 17.584 64.0572 16.456 64.6332 15.496C65.2252 14.536 66.0092 13.8 66.9852 13.288C67.9612 12.776 69.0252 12.52 70.1772 12.52C71.0252 12.52 71.7532 12.632 72.3612 12.856C72.9852 13.064 73.5612 13.336 74.0892 13.672C74.4092 13.88 74.5692 14.16 74.5692 14.512C74.5692 14.752 74.4732 14.976 74.2812 15.184C74.1052 15.376 73.8972 15.472 73.6572 15.472C73.4812 15.472 73.3052 15.424 73.1292 15.328C72.6012 15.056 72.1452 14.864 71.7612 14.752C71.3932 14.624 70.9292 14.56 70.3692 14.56C68.9932 14.56 67.9132 14.96 67.1292 15.76C66.3452 16.544 65.9532 17.584 65.9532 18.88C65.9532 20.176 66.3452 21.224 67.1292 22.024C67.9132 22.808 68.9932 23.2 70.3692 23.2C70.9292 23.2 71.3932 23.144 71.7612 23.032C72.1452 22.904 72.6012 22.704 73.1292 22.432C73.3052 22.336 73.4812 22.288 73.6572 22.288C73.8972 22.288 74.1052 22.392 74.2812 22.6C74.4732 22.792 74.5692 23.008 74.5692 23.248C74.5692 23.6 74.4092 23.88 74.0892 24.088C73.5612 24.424 72.9852 24.704 72.3612 24.928C71.7532 25.136 71.0252 25.24 70.1772 25.24ZM78.3901 25.12C78.0861 25.12 77.8301 25.016 77.6221 24.808C77.4141 24.6 77.3101 24.344 77.3101 24.04V8.464C77.3101 8.16 77.4141 7.904 77.6221 7.696C77.8301 7.472 78.0861 7.36 78.3901 7.36C78.6941 7.36 78.9501 7.472 79.1581 7.696C79.3821 7.904 79.4941 8.16 79.4941 8.464V18.28L85.2061 13C85.4461 12.792 85.6861 12.688 85.9261 12.688C86.2941 12.688 86.5581 12.792 86.7181 13C86.8941 13.208 86.9821 13.456 86.9821 13.744C86.9821 14.016 86.8461 14.288 86.5741 14.56L83.1181 17.656L87.4621 23.416C87.6221 23.624 87.7021 23.84 87.7021 24.064C87.7021 24.384 87.5981 24.64 87.3901 24.832C87.1821 25.024 86.9181 25.12 86.5981 25.12C86.4381 25.12 86.2781 25.08 86.1181 25C85.9581 24.92 85.8221 24.808 85.7101 24.664L81.5821 19.048L79.4941 20.944V24.04C79.4941 24.344 79.3821 24.6 79.1581 24.808C78.9501 25.016 78.6941 25.12 78.3901 25.12Z" fill="#6B6C7E"/>
</svg>
