<svg width="40" height="40" viewBox="0 0 40 40" fill="none" xmlns="http://www.w3.org/2000/svg">
<path fill-rule="evenodd" clip-rule="evenodd" d="M31.9116 39.6633C32.1974 39.833 32.5145 39.9178 32.8291 39.9178H32.8531C33.8403 39.9178 34.6353 39.1157 34.6353 38.1363C34.6353 37.8355 34.5657 37.5579 34.436 37.3111L29.9373 24.6708L39.2565 17.2594C39.8522 16.7889 40.0755 15.9946 39.8281 15.2773C39.5807 14.5601 38.9034 14.082 38.1468 14.082H26.5579L21.9895 1.88124C21.7253 1.18715 21.0624 0.724426 20.3226 0.724426C19.5805 0.724426 18.9176 1.18715 18.6558 1.88124L14.0874 14.082H2.50566C1.74907 14.082 1.07895 14.5601 0.824355 15.2773C0.569758 15.9946 0.800337 16.7889 1.38639 17.2594L10.7224 24.6785L6.4399 37.2417C6.20212 37.9512 6.42549 38.7301 7.00434 39.2006C7.58318 39.671 8.39261 39.7327 9.03391 39.3548L20.3154 32.7069L31.9116 39.6633ZM21.2426 29.1053C20.9567 28.9356 20.6397 28.8508 20.3226 28.8508C20.008 28.8508 19.6982 28.9356 19.4195 29.0976L11.3733 33.8406L14.5125 24.64C14.7527 23.9304 14.5198 23.1438 13.9337 22.6734L7.6072 17.645H15.3244C16.0641 17.645 16.7271 17.1822 16.9889 16.4882L20.3226 7.58829L23.6564 16.4882C23.911 17.1822 24.5835 17.645 25.3233 17.645H33.0405L26.7116 22.6734C26.1183 23.1438 25.8877 23.9458 26.1423 24.6631L29.4833 34.0488L21.2426 29.1053Z" fill="white"/>
</svg>
