<svg width="254" height="216" viewBox="0 0 254 216" fill="none" xmlns="http://www.w3.org/2000/svg">
<path d="M253.026 105.22C252.461 102.891 251.13 100.819 249.246 99.3378C247.362 97.8563 245.035 97.0511 242.639 97.0515H242.633C240.182 97.0754 237.799 97.8623 235.816 99.3029C231.544 82.3869 222.505 67.0532 209.773 55.1246C196.895 43.0323 181.14 35.3126 164.469 32.7493C163.349 23.7167 158.969 15.4039 152.152 9.37336C145.335 3.34278 136.55 0.00952169 127.448 2.03683e-05C118.346 -0.00948096 109.554 3.30542 102.724 9.32176C95.8946 15.3381 91.4971 23.6416 90.3584 32.6719C84.8727 33.4521 79.4763 34.7658 74.2459 36.5946C68.7043 31.9271 61.0371 29.363 52.1418 29.3629H52.1418C47.2724 29.3366 42.4361 30.1635 37.8521 31.8062C29.8834 34.7988 27.1304 39.495 26.2241 42.9078C24.9707 47.6276 26.3051 54.199 33.8096 58.4873C35.3464 59.3655 36.5028 60.0262 37.1994 61.528C32.2406 66.5555 28.4977 70.748 25.3535 75.789C21.6919 81.6592 19.3756 87.9184 18.0644 95.6238C13.8632 96.1079 7.90098 97.2395 3.3471 102.227C-0.28816 106.208 -0.283017 111.723 0.264073 117.088C0.7945 121.721 1.61441 126.317 2.71901 130.847C3.84139 135.702 5.27208 140.481 7.00238 145.154C9.03814 150.462 11.6328 155.646 16.7896 157.617C17.6825 157.958 19.9018 159.047 21.5222 159.842C22.2024 160.175 22.8624 160.499 23.4837 160.799C24.0044 161.663 24.7358 163.043 25.309 164.126C26.8585 167.149 28.5639 170.091 30.4183 172.938C32.4613 176.002 34.9441 178.568 37.1347 180.832C38.4584 182.131 39.6953 183.516 40.8376 184.977V195.125C40.8436 200.472 42.9703 205.598 46.7512 209.379C50.532 213.16 55.6581 215.286 61.005 215.292H81.7496C86.9846 215.226 92.0384 213.366 96.0672 210.023C97.9931 208.44 99.6235 206.528 100.883 204.376C101.986 204.418 103.088 204.439 104.188 204.439H150.124C150.963 204.439 151.803 204.427 152.645 204.402C156.058 211.062 163.863 215.292 171.049 215.292H193.813C199.16 215.286 204.286 213.16 208.067 209.379C211.847 205.598 213.974 200.472 213.98 195.125V182.409C214.198 178.032 214.818 177.366 218.021 173.924C221.527 170.157 226.584 164.722 231.752 153.308C236.795 151.99 241.271 148.908 244.903 144.206C253.829 132.647 255.356 114.138 253.026 105.22ZM127.409 10.0958C133.676 10.1039 139.75 12.2681 144.611 16.2248C149.472 20.1816 152.823 25.6901 154.103 31.8256C153.451 31.8098 152.797 31.8018 152.144 31.8017H102.674C102.02 31.8017 101.367 31.8092 100.715 31.8244C101.995 25.6891 105.347 20.1809 110.207 16.2244C115.068 12.2678 121.142 10.1039 127.409 10.0958ZM225.965 143.944C225.568 143.944 225.163 143.926 224.75 143.89C214.233 171.123 204.642 165.571 203.884 182.169V195.125C203.884 197.796 202.823 200.358 200.934 202.247C199.046 204.136 196.484 205.197 193.813 205.197H171.049C166.602 205.197 160.977 201.591 160.977 197.144V193.571C157.383 194.085 153.756 194.343 150.124 194.344H104.188C100.557 194.343 96.9305 194.085 93.3356 193.572V195.125C93.3356 200.687 87.312 205.197 81.7496 205.197H61.005C58.3339 205.197 55.7721 204.136 53.8833 202.247C51.9945 200.358 50.9334 197.796 50.9334 195.125V183.68C50.4917 178.214 42.8568 173.395 38.8184 167.337C34.1582 160.347 32.0348 153.633 29.2036 152.336C26.8007 151.235 22.4905 148.987 20.3936 148.186C15.8505 146.45 7.66461 112.471 10.8027 109.034C16.1029 103.229 27.2083 107.772 27.4141 101.684C29.36 83.8488 35.9447 76.9487 48.028 64.9778C47.6522 55.5267 42.9318 52.0722 38.8184 49.7216C30.7364 45.1033 40.8078 39.4587 52.1417 39.4587C59.5781 39.4587 67.558 41.8887 71.3102 48.6331C78.6182 45.3286 86.4046 43.206 94.3786 42.3444C95.1678 42.4674 95.9751 42.3936 96.7288 42.1294C98.6909 41.9778 100.673 41.9005 102.674 41.8974H152.144C154.17 41.8974 156.176 41.9882 158.163 42.1564C158.845 42.3799 159.569 42.4522 160.282 42.3684C195.493 46.4146 223.545 76.3047 227.803 111.359C228.311 111.934 228.933 112.397 229.63 112.719C230.327 113.041 231.083 113.215 231.85 113.229C236.48 113.229 240.934 107.146 242.633 107.147C242.93 107.147 243.143 107.334 243.258 107.772C245.804 117.517 241.337 143.944 225.965 143.944Z" fill="black"/>
<path d="M133.466 111.6V82.4862C140.239 83.1833 146.229 85.5764 149.048 89.2531C150.026 90.5257 151.469 91.358 153.061 91.5671C154.652 91.7762 156.262 91.3451 157.536 90.3685C158.81 89.3919 159.644 87.9495 159.855 86.3583C160.066 84.7671 159.637 83.1571 158.662 81.882C153.22 74.7837 143.514 71.1269 133.466 70.3479V65.2306C133.466 63.624 132.828 62.0833 131.692 60.9473C130.556 59.8113 129.015 59.1731 127.409 59.1731C125.802 59.1731 124.262 59.8113 123.126 60.9473C121.99 62.0833 121.351 63.624 121.351 65.2306V70.7836C119.13 71.1137 116.936 71.6021 114.785 72.2451C101.863 76.154 94.0297 84.7268 93.2937 95.7651C92.7426 104.033 94.759 110.654 99.2868 115.444C105.544 122.063 114.861 123.243 121.351 123.42V153.839C113.144 153.207 105.493 150.332 101.874 144.832C101.437 144.166 100.874 143.594 100.215 143.146C99.5571 142.699 98.8171 142.386 98.0376 142.225C97.2582 142.063 96.4546 142.057 95.6728 142.207C94.891 142.357 94.1464 142.659 93.4815 143.096C92.8166 143.534 92.2444 144.098 91.7976 144.757C91.3509 145.415 91.0383 146.156 90.8778 146.935C90.7173 147.715 90.7121 148.518 90.8623 149.3C91.0126 150.082 91.3154 150.826 91.7535 151.491C97.8616 160.775 109.434 165.251 121.351 165.984V171.011C121.351 172.618 121.99 174.158 123.126 175.294C124.262 176.43 125.802 177.069 127.409 177.069C129.015 177.069 130.556 176.43 131.692 175.294C132.828 174.158 133.466 172.618 133.466 171.011V165.465C135.308 165.194 137.116 164.84 138.866 164.402C153.539 160.723 162.907 151.838 163.926 140.633C164.621 132.987 162.672 126.589 158.132 121.619C152.91 115.899 144.622 112.547 133.466 111.6ZM108.091 107.122C105.976 104.884 105.064 101.335 105.382 96.5711C105.904 88.735 113.695 85.2318 118.293 83.841C119.293 83.5383 120.316 83.284 121.351 83.0708V111.298C116.815 111.149 111.191 110.401 108.091 107.122ZM151.861 139.536C151.074 148.194 139.461 151.763 135.92 152.65C135.118 152.852 134.298 153.029 133.466 153.185V123.752C142.576 124.678 147.023 127.418 149.187 129.789C151.366 132.174 152.24 135.363 151.861 139.536H151.861Z" fill="black"/>
</svg>
