<svg id="Lines_copy_3" data-name="Lines copy 3" xmlns="http://www.w3.org/2000/svg" xmlns:xlink="http://www.w3.org/1999/xlink" viewBox="0 0 503.18057 426.49994"><defs><style>.cls-1{fill:url(#New_Gradient_Swatch_copy);}.cls-2{fill:url(#New_Gradient_Swatch);}.cls-3{fill:#fff;}</style><linearGradient id="New_Gradient_Swatch_copy" x1="300" y1="140" x2="300" y2="76" gradientUnits="userSpaceOnUse"><stop offset="0" stop-color="#f3c05e"/><stop offset="1" stop-color="#f6d086"/></linearGradient><linearGradient id="New_Gradient_Swatch" x1="299.22302" y1="472.5" x2="299.22302" y2="144.16874" gradientUnits="userSpaceOnUse"><stop offset="0" stop-color="#ffa1a1"/><stop offset="0.50848" stop-color="#faa"/><stop offset="0.99438" stop-color="#ffb8b8"/></linearGradient></defs><path class="cls-1" d="M364,140a64,64,0,0,0-128,0" transform="translate(-47.59973 -66)"/><path class="cls-2" d="M529.5,279.5c-1.90259-7.28162-17.5,20.5-30.61755,7.10468C489.80664,211.88715,426.1673,149,349.00012,149H250.99988a150.42746,150.42746,0,0,0-62.13281,13.34351C170.10468,128.61945,97.98438,149.34821,124.5,164.5c8.14874,4.65643,17.5,11.5,18.24451,30.22284-23.9375,23.71466-36.98188,37.38373-40.83673,72.7168C101.5,279.5,79.5,270.5,69,282c-6.21646,6.8085,10,74.121,19,77.56049,4.154,1.58751,12.69263,6.04,17.45285,8.22088C111.06143,370.35088,115.268,383.65192,124.5,397.5c8,12,23.125,21.54674,24,32.3739v22.67383A19.95228,19.95228,0,0,0,168.45227,472.5h41.09552c11.0193,0,22.95221-8.93291,22.95221-19.95221v-3.07654A152.17179,152.17179,0,0,0,253.99988,451h91.00024A152.22722,152.22722,0,0,0,366.5,449.46942v7.07831c0,8.8102,11.14207,15.95227,19.95227,15.95227h45.09552A19.95221,19.95221,0,0,0,451.5,452.54779V426.88232C453,394,472,405,492.83563,351.04993,525.22546,353.88757,534.67432,299.30316,529.5,279.5Z" transform="translate(-47.59973 -66)"/><path class="cls-3" d="M548.85052,274.444A21.17,21.17,0,0,0,528.273,258.26147h-.01148a23.36878,23.36878,0,0,0-13.505,4.46015,180.47781,180.47781,0,0,0-51.59064-87.51837c-25.512-23.95514-56.72314-39.24805-89.74835-44.326a73.97938,73.97938,0,0,0-146.81543-.15326,168.66372,168.66372,0,0,0-31.91931,7.77081c-10.978-9.24627-26.16693-14.32593-43.78882-14.32611h-.00006a82.59287,82.59287,0,0,0-28.30811,4.84021c-15.78625,5.92847-21.24011,15.23181-23.03546,21.99255-2.48309,9.35016.16053,22.36817,15.027,30.86335,3.04456,1.73974,5.33539,3.0487,6.71545,6.02374-9.8236,9.95959-17.23846,18.26508-23.46722,28.2514C90.572,227.7691,85.98322,240.16864,83.38568,255.43329c-8.32257.959-20.13391,3.20062-29.15527,13.0813-7.20154,7.8872-7.19135,18.81079-6.10755,29.44043a221.37821,221.37821,0,0,0,4.86329,27.25689A232.32074,232.32074,0,0,0,61.47162,353.554c4.0329,10.51556,9.173,20.7846,19.38879,24.68872,1.76874.676,6.16522,2.83276,9.37543,4.40765,1.34741.66095,2.65491,1.30237,3.8858,1.89624,1.0315,1.71143,2.48029,4.44678,3.61585,6.59052a194.56375,194.56375,0,0,0,10.1217,17.45691c4.04718,6.07086,8.96576,11.15441,13.30542,15.6394a83.94279,83.94279,0,0,1,7.33545,8.21094v20.10333a39.99739,39.99739,0,0,0,39.95221,39.95221h41.09558a45.31241,45.31241,0,0,0,28.36347-10.43915,41.83885,41.83885,0,0,0,9.53991-11.18683q3.27906.12579,6.54859.126h91.00036q2.49143,0,4.99353-.07361c6.76081,13.19257,22.22254,21.57361,36.45856,21.57361h45.09558a39.99737,39.99737,0,0,0,39.95221-39.95215v-25.19c.43195-8.67249,1.65973-9.9914,8.00519-16.80963,6.94525-7.46277,16.96362-18.22876,27.20154-40.84076,9.99078-2.61151,18.85791-8.71729,26.05194-18.03247C550.44214,328.77747,553.46625,292.11005,548.85052,274.444ZM300,86a54.0917,54.0917,0,0,1,52.88165,43.04742q-1.93863-.047-3.88147-.04748H250.99982q-1.94423,0-3.88092.045A54.09111,54.09111,0,0,1,300,86ZM495.24255,351.15656q-1.1812,0-2.40692-.10663c-20.83557,53.95-39.83557,42.95-41.33557,75.83233v25.66553a19.95225,19.95225,0,0,1-19.95221,19.95215H386.45227c-8.81018,0-19.95221-7.142-19.95221-15.95221v-7.07837a152.21958,152.21958,0,0,1-21.49988,1.53058H253.99982a152.17161,152.17161,0,0,1-21.49976-1.52869v3.07654c0,11.01923-11.933,19.95215-22.95221,19.95215H168.45227a19.95222,19.95222,0,0,1-19.95221-19.95221V429.8739c-.875-10.82721-16-20.374-24-32.374-9.23212-13.848-13.43866-27.149-19.04724-29.71857-4.76019-2.18091-13.29889-6.6333-17.45276-8.22088-9-3.43946-25.21655-70.752-19-77.56055,10.5-11.5,32.5-2.5,32.90765-14.56036,3.85492-35.33295,16.89936-49.00208,40.8368-72.71674-.74445-18.7229-10.09577-25.56647-18.24445-30.2229-16.01068-9.149,3.941-20.33124,26.39374-20.33118,14.73163,0,30.54,4.814,37.97327,18.17475a150.03232,150.03232,0,0,1,45.69909-12.458,9.60542,9.60542,0,0,0,4.65589-.426q5.83053-.45043,11.77777-.45959h98.00036c4.014,0,7.98889.17987,11.92395.513a9.8155,9.8155,0,0,0,4.19892.42c69.75439,8.01563,125.32422,67.22876,133.75946,136.67176a10.9765,10.9765,0,0,0,8.01855,3.70581c9.17133,0,17.996-12.05072,21.3606-12.049.58905.0003,1.01147.37,1.2384,1.2384C534.54382,298.804,525.69366,351.15656,495.24255,351.15656Z" transform="translate(-47.59973 -66)"/><path class="cls-3" d="M360.86426,306.92969C350.51758,295.59888,334.10046,288.95831,312,287.0816V229.40692c13.41772,1.381,25.28339,6.12195,30.86719,13.40558A12.00018,12.00018,0,0,0,361.91406,228.21C351.13306,214.14819,331.9043,206.90387,312,205.36078V195.22314a12,12,0,0,0-24,0v11.00074a93.36431,93.36431,0,0,0-13.00879,2.89526c-25.59863,7.74365-41.11621,24.72656-42.57422,46.59375-1.09179,16.3794,2.90283,29.49561,11.87256,38.98438C256.68567,307.81036,275.14325,310.14783,288,310.497v60.26184c-16.25983-1.25177-31.4151-6.94733-38.58447-17.84381a12.00009,12.00009,0,1,0-20.04981,13.19141C241.46606,384.49835,264.39166,393.3667,288,394.81769v9.95965a12,12,0,0,0,24,0V393.78918c3.64929-.53686,7.23077-1.23663,10.69727-2.10559,29.06738-7.28711,47.626-24.88964,49.64453-47.08691C373.71875,329.4502,369.85742,316.77637,360.86426,306.92969Zm-99.13379-28.71924c-4.18994-4.43262-5.99561-11.46436-5.36621-20.90088,1.03467-15.52344,16.46826-22.46338,25.57617-25.21875,1.98169-.59961,4.00812-1.10339,6.05957-1.52576v55.91846C279.01428,286.18793,267.87213,284.70746,261.73047,278.21045Zm86.709,64.21435c-1.55859,17.15137-24.56445,24.22071-31.57812,25.9795-1.58936.39831-3.2135.74969-4.86133,1.0589V311.15527c18.04572,1.83454,26.85559,7.26374,31.14258,11.959C347.459,327.83984,349.19141,334.15723,348.43945,342.4248Z" transform="translate(-47.59973 -66)"/></svg>