<svg width="177" height="149" viewBox="0 0 177 149" fill="none" xmlns="http://www.w3.org/2000/svg">
<path d="M88.1364 4.84839C75.13 4.84839 65.5921 13.5193 66.7482 25.0805C74.2634 23.3463 102.299 24.2134 110.392 26.2366C110.681 11.4961 101.143 4.84839 88.1364 4.84839Z" fill="#F3C05E" stroke="white" stroke-width="9" stroke-linejoin="round"/>
<path d="M27.152 47.1095C23.1056 49.4217 10.6773 63.8732 12.7005 75.7235C10.4845 75.7235 5.7057 76.1859 4.31836 78.0357C6.91963 108.962 9.5209 106.072 15.5905 105.783C17.0357 115.321 32.0652 130.061 39.002 132.373C39.8691 136.709 40.7361 139.021 42.1813 144.802H69.9282V137.287C73.3965 137.287 94.4957 139.021 102.3 137.287V144.802C106.346 145.091 130.335 144.802 135.827 142.489V132.373C141.608 125.726 153.747 113.875 154.614 100.002C166.464 99.713 172.823 84.9724 171.956 69.0758C166.175 73.4112 165.308 75.7235 158.371 71.099C155.481 60.4049 152.88 49.9998 135.827 35.2593C118.774 20.5187 52.2974 24.2761 45.6497 27.1664C42.7594 22.2529 27.152 18.4955 15.5905 27.1664C22.5273 34.3922 23.9727 39.3057 27.152 47.1095Z" fill="#FFA1A1" stroke="white" stroke-width="8" stroke-linejoin="round"/>
</svg>
