<svg width="18" height="18" viewBox="0 0 18 18" fill="none" xmlns="http://www.w3.org/2000/svg">
<path d="M15.5577 9.68238C15.637 9.14811 15.5405 8.32774 15.4922 7.95548L17.1652 6.84557C17.6275 6.52501 17.7724 5.91146 17.5068 5.41855L16.2752 3.24699C16.0027 2.7403 15.3887 2.53003 14.8609 2.75753L13.0947 3.56756C12.6497 3.20908 11.9114 2.81268 11.3733 2.60242L11.1422 0.951348C11.0663 0.406736 10.5971 0 10.0452 0H7.63042C7.07503 0 6.60933 0.410183 6.53344 0.954795L6.30921 2.5714C5.67103 2.83681 5.03629 3.22976 4.57404 3.57445L2.84922 2.7403C2.34212 2.54037 1.80053 2.58518 1.52455 3.05741L0.151596 5.16003C-0.120926 5.62192 -0.0174368 6.21134 0.393071 6.55948L2.12824 7.94513C2.07305 8.34842 2.02475 9.15845 2.10754 9.69961L0.472413 10.8233C0.00671074 11.1508 -0.134725 11.7781 0.144696 12.271L1.48661 14.4943C1.76948 14.9872 2.38352 15.1871 2.90441 14.9562L4.57404 14.0703C5.02939 14.4219 5.76417 14.87 6.30576 15.0802L6.50239 16.6727C6.56793 17.2277 7.03709 17.6447 7.59938 17.6482L10.0866 17.6551C10.6489 17.6551 11.1215 17.238 11.187 16.6831L11.3698 15.0665C12.0149 14.8079 12.6531 14.4667 13.1085 14.1082L14.9264 14.8562C15.4577 15.1044 16.0924 14.8976 16.3718 14.384L17.5309 12.3124C17.7931 11.8264 17.6585 11.2231 17.2101 10.8991L15.5577 9.68238ZM8.84125 11.8367C5.26397 11.8367 5.03284 6.32164 8.84125 6.32164C12.591 6.32164 12.4185 11.8367 8.84125 11.8367Z" fill="#6B6C7E"/>
</svg>
